<svg xmlns="http://www.w3.org/2000/svg" width="419" height="464" fill="none" viewBox="0 0 419 464">
  <path fill="#01C3C7" d="M89 360.475V257l89 52-89 51.475Z"/>
  <path fill="#0C78A3" d="m89 257 89.001-51v103l-89-52Zm30 111.5 29.965-17.5.035.022V386l-30-17.5ZM89 257V154l89 52-89 51Z"/>
  <path fill="#01BBBE" d="M0 205.512 89 154v103L0 205.512Z"/>
  <path fill="#01C3C7" d="M0 411.738v-.156l89.065-51.408.066.043V463.19L.001 411.738"/>
  <path fill="#EF3239" d="M.006 205.813V103L89 154 .006 205.813Z"/>
  <path fill="#EF3239" d="m0 103 89-51v102L0 103Zm89 51V52l89 51-89 51Z"/>
  <path fill="#F7972A" d="M267 154V51l89 52-89 51Zm116-30V82.018l.036-.018L419 102.996 383 124"/>
  <path fill="#FBCB86" d="M267 360V257l89 52-89 51Z"/>
  <path fill="#F46B34" d="M177.622 205.878 267.001 154v103l-89.379-51.122Z"/>
  <path fill="#F46B34" d="M178 309V206l89 51-89 52Z"/>
  <path fill="#F7972A" d="m178 309 89-52v103l-89-51Zm.001-206v103l89-52-89-51Z"/>
  <path fill="#F7972A" d="m178 103 89-52v103l-89-51Z"/>
  <path fill="#F97211" d="M178 103V0l89.261 51.386L178 103Z"/>
  <path fill="#A5161C" d="m89 52 89-52v103L89 52Z"/>
  <path fill="#F7972A" d="m89 154 89-51v103l-89-52Z"/>
</svg>
