<svg xmlns="http://www.w3.org/2000/svg" width="447" height="675" fill="none" viewBox="0 0 447 675">
  <path fill="#02D4D8" d="M357 160v103l-89-51 89-52Z"/>
  <path fill="#0C78A3" d="m357 263-89 51V212l89 51Zm.007 0L357 366l-89-52 89.007-51Z"/>
  <path fill="#01BBBE" d="m447 314-90 52V263l90 51Z"/>
  <path fill="#01BBBE" d="M447 212v102l-90-51 90-51Z"/>
  <path fill="#02D4D8" d="M414.301 0v29.836l-.018.013-25.842-14.921L414.301 0ZM447 108.5 357 160V57l90 51.5Z"/>
  <path fill="#A5161C" d="M357 469.025V572l-89-51.975 89-51Z"/>
  <path fill="#EF3239" d="m357 572-89 51V520l89 52Z"/>
  <path fill="#01C3C7" d="M357 572v103l-89-52 89-51Zm90 51-90 52V572l90 51Z"/>
  <path fill="#0C78A3" d="M447 623V520l-90 52 90 51Z"/>
  <path fill="#0C78A3" d="m447 520-90 52V469l90 51Z"/>
  <path fill="#EF4D29" d="M447 314v103l-90-51 90-52Z"/>
  <path fill="#EF4D29" d="m447 417-90 52V366l90 51Z"/>
  <path fill="#01C3C7" d="M447 417v103l-90-51 90-52Z"/>
  <path fill="#EF4D29" d="M357 366v103l-89-52 89-51Z"/>
  <path fill="#FBCB86" d="M178 160v103l-88-51 88-52Z"/>
  <path fill="#F97211" d="m268 314-90 52V263l90 51Zm-150.208.318-41.584 24.008v-47.992l.037-.016 41.547 24Z"/>
  <path fill="#FBCB86" d="m117 168-28 16v-32l28 16Z"/>
  <path fill="#F97211" d="M268 212v102l-90-51 90-51Z"/>
  <path fill="#F7972A" d="m268 212-90 51V160l90 52Z"/>
  <path fill="#F36246" d="M178 469v103l-88-52 88-51Z"/>
  <path fill="#EF3239" d="m268 623-90 52V572l90 51Zm-178.601.032L0 675V572l89.399 51.032Z"/>
  <path fill="#EF3239" d="M268 623V520l-90 52 90 51Z"/>
  <path fill="#EF3239" d="m268 520-90 52V469l90 51Z"/>
  <path fill="#F7972A" d="M268 314v103l-90-51 90-52Z"/>
  <path fill="#F7972A" d="m268 417-90 52V366l90 51Z"/>
  <path fill="#F97211" d="M268 417v103l-90-51 90-52Z"/>
  <path fill="#A5161C" d="M357 469.071 268 520V417l89 52.071Z"/>
  <path fill="#F7972A" d="M357.282 365.715 268 417V314l89.282 51.715Z"/>
</svg>
